<svg xmlns="http://www.w3.org/2000/svg" xmlns:xlink="http://www.w3.org/1999/xlink" version="1.1" style="" xml:space="preserve" width="32.055" height="32.055"><rect id="backgroundrect" width="100%" height="100%" x="0" y="0" fill="none" stroke="none"/>
















<g class="currentLayer" style=""><title>Layer 1</title><g id="svg_1" class="selected" fill="#b6b6b6" fill-opacity="1">
	<path d="M3.968,12.061C1.775,12.061,0,13.835,0,16.027c0,2.192,1.773,3.967,3.968,3.967c2.189,0,3.966-1.772,3.966-3.967   C7.934,13.835,6.157,12.061,3.968,12.061z M16.233,12.061c-2.188,0-3.968,1.773-3.968,3.965c0,2.192,1.778,3.967,3.968,3.967   s3.97-1.772,3.97-3.967C20.201,13.835,18.423,12.061,16.233,12.061z M28.09,12.061c-2.192,0-3.969,1.774-3.969,3.967   c0,2.19,1.774,3.965,3.969,3.965c2.188,0,3.965-1.772,3.965-3.965S30.278,12.061,28.09,12.061z" id="svg_2" fill="#b6b6b6" fill-opacity="1"/>
</g><g id="svg_3" class="selected">
</g><g id="svg_4" class="selected">
</g><g id="svg_5" class="selected">
</g><g id="svg_6" class="selected">
</g><g id="svg_7" class="selected">
</g><g id="svg_8" class="selected">
</g><g id="svg_9" class="selected">
</g><g id="svg_10" class="selected">
</g><g id="svg_11" class="selected">
</g><g id="svg_12" class="selected">
</g><g id="svg_13" class="selected">
</g><g id="svg_14" class="selected">
</g><g id="svg_15" class="selected">
</g><g id="svg_16" class="selected">
</g><g id="svg_17" class="selected">
</g></g></svg>