<svg xmlns:dc="http://purl.org/dc/elements/1.1/" xmlns:cc="http://creativecommons.org/ns#" xmlns:rdf="http://www.w3.org/1999/02/22-rdf-syntax-ns#" xmlns:svg="http://www.w3.org/2000/svg" xmlns="http://www.w3.org/2000/svg" xmlns:sodipodi="http://sodipodi.sourceforge.net/DTD/sodipodi-0.dtd" xmlns:inkscape="http://www.inkscape.org/namespaces/inkscape" version="1.1" width="511.99998" height="639.999975" style=""><rect id="backgroundrect" width="100%" height="100%" x="0" y="0" fill="none" stroke="none"/><g class="currentLayer" style=""><title>Layer 1</title><g id="svg_1" class="" fill="#919191" fill-opacity="1"><path style="opacity: 1; fill-rule: evenodd; stroke: rgb(0, 0, 0); stroke-width: 50.1951; stroke-linejoin: miter; stroke-miterlimit: 4; stroke-dasharray: none; stroke-opacity: 0;" d="m255.98834939453104,89.09750601806641 a52.405983,52.311179 0 0 0 -52.39081,52.31937 a52.405983,52.311179 0 0 0 52.39081,52.31926 a52.405983,52.311179 0 0 0 52.41409,-52.31926 a52.405983,52.311179 0 0 0 -52.41409,-52.31937 zm0,178.58313 a52.405983,52.311179 0 0 0 -52.39081,52.31938 a52.405983,52.311179 0 0 0 52.39081,52.31926 a52.405983,52.311179 0 0 0 52.41409,-52.31926 a52.405983,52.311179 0 0 0 -52.41409,-52.31938 zm0,178.58313 a52.405983,52.311179 0 0 0 -52.39081,52.31938 a52.405983,52.311179 0 0 0 52.39081,52.31926 a52.405983,52.311179 0 0 0 52.41409,-52.31926 a52.405983,52.311179 0 0 0 -52.41409,-52.31938 z" id="svg_2" fill="#919191" fill-opacity="1"/></g></g></svg>